<?xml version="1.0" standalone="no"?>
<!DOCTYPE svg PUBLIC "-//W3C//DTD SVG 20010904//EN"
 "http://www.w3.org/TR/2001/REC-SVG-20010904/DTD/svg10.dtd">
<svg version="1.0" xmlns="http://www.w3.org/2000/svg"
 width="100.000000pt" height="100.000000pt" viewBox="0 0 100.000000 100.000000"
 preserveAspectRatio="xMidYMid meet">

<g transform="translate(0.000000,100.000000) scale(0.100000,-0.100000)"
fill="#000000" stroke="none">
<path d="M60 900 c-19 -19 -20 -33 -20 -400 0 -367 1 -381 20 -400 19 -19 33
-20 440 -20 407 0 421 1 440 20 19 19 20 33 20 360 0 327 -1 341 -20 360 -19
19 -33 20 -299 20 l-279 0 -32 40 -32 40 -109 0 c-96 0 -111 -2 -129 -20z
m252 -60 l28 -40 287 -2 288 -3 3 -27 3 -28 -420 0 -421 0 0 63 c0 35 3 67 7
70 3 4 49 7 102 7 l96 -1 27 -39z m603 -430 l0 -285 -415 0 -415 0 -3 275 c-1
151 0 280 3 287 3 11 90 13 417 11 l413 -3 0 -285z"/>
<path d="M487 614 c-4 -4 -7 -66 -7 -138 l0 -130 -40 39 c-31 31 -43 36 -52
27 -10 -10 1 -26 50 -75 l62 -62 62 62 c49 49 60 65 50 75 -9 9 -20 4 -52 -27
l-39 -38 -3 133 c-3 124 -10 155 -31 134z"/>
<path d="M285 229 c-16 -25 19 -29 221 -27 178 3 209 5 209 18 0 13 -31 15
-212 18 -147 2 -214 -1 -218 -9z"/>
</g>
</svg>
